<?xml version="1.0" encoding="utf-8"?>
<svg xmlns="http://www.w3.org/2000/svg" viewBox="155.829 72.912 96.479 89.7541" width="96.479px" height="89.7541px">
  <g transform="matrix(1.0000000000000002, 0, 0, 1.0000000000000002, 2.842170943040401e-14, -7.105427357601002e-15)">
    <path style="stroke: rgb(0, 0, 0);" d="M 155.972 141.766 C 155.972 141.766 188.095 145.9 204.212 145.775 C 220.204 145.651 252.022 141.051 252.022 141.051 L 252.308 158.8 C 252.308 158.8 219.489 162.688 203.639 162.666 C 187.692 162.644 155.829 158.228 155.829 158.228 L 155.972 141.766 Z"/>
    <path style="stroke: rgb(0, 0, 0);" d="M 163.415 144.199 C 163.415 144.199 249.395 172.239 242.145 145.344 C 235.859 122.023 244.15 72.912 244.15 72.912 C 244.15 72.912 215.147 77.296 202.637 77.494 C 188.063 77.725 161.984 74.059 161.984 74.059 C 161.984 74.059 175.731 140.477 163.415 144.199 Z"/>
  </g>
</svg>